<?xml version="1.0" standalone="no"?>
<!DOCTYPE svg PUBLIC "-//W3C//DTD SVG 20010904//EN"
 "http://www.w3.org/TR/2001/REC-SVG-20010904/DTD/svg10.dtd">
<svg version="1.0" xmlns="http://www.w3.org/2000/svg"
 width="680.000000pt" height="678.000000pt" viewBox="0 0 680.000000 678.000000"
 preserveAspectRatio="xMidYMid meet">

<g transform="translate(0.000000,678.000000) scale(0.100000,-0.100000)"
fill="#000000" stroke="none">
<path d="M3573 6655 c-84 -51 -181 -240 -238 -465 -52 -203 -56 -389 -16 -600
31 -161 62 -246 142 -392 68 -124 100 -203 98 -243 -1 -16 -3 -15 -12 8 -13
31 -22 34 -32 10 -4 -13 -14 0 -35 50 -59 140 -160 237 -392 376 -208 125
-315 212 -445 364 -156 181 -234 294 -313 452 -44 87 -46 90 -80 90 -49 0 -60
-27 -60 -152 0 -89 5 -118 41 -244 67 -233 139 -383 258 -535 82 -105 132
-154 266 -258 104 -81 141 -101 315 -168 93 -35 149 -62 200 -98 13 -9 13 -11
0 -19 -21 -14 -6 -24 35 -25 19 -1 35 -4 35 -7 0 -14 -30 -17 -64 -7 -46 14
-79 -1 -101 -47 -8 -18 -31 -56 -50 -85 -19 -28 -49 -78 -66 -111 -39 -73 -94
-124 -151 -139 -136 -37 -178 -53 -168 -65 7 -8 3 -15 -13 -24 -27 -14 -65
-69 -75 -106 -7 -25 -16 -29 -99 -50 -87 -22 -133 -40 -133 -51 0 -2 8 0 18 5
32 17 177 51 210 48 30 -2 32 -4 32 -40 0 -42 24 -107 39 -107 6 0 19 -17 30
-37 27 -52 64 -84 151 -129 84 -44 175 -127 207 -191 l22 -42 -22 -33 c-22
-32 -26 -33 -104 -38 -68 -5 -86 -10 -116 -33 -49 -38 -87 -105 -108 -194 -10
-40 -40 -120 -68 -176 -28 -56 -58 -132 -67 -169 -20 -75 -24 -78 -114 -78
-54 0 -169 15 -177 24 -2 2 -6 68 -9 146 -4 164 3 190 74 273 23 27 42 50 42
53 0 19 -27 48 -55 60 -50 21 -86 17 -149 -14 l-56 -29 0 43 c0 50 -19 74 -61
74 -24 0 -29 4 -29 25 0 24 -32 51 -49 41 -4 -3 -16 -27 -26 -53 -10 -26 -27
-58 -38 -70 -12 -13 -25 -50 -32 -85 l-11 -62 -75 94 c-87 109 -136 155 -193
181 -46 21 -112 24 -168 9 -45 -13 -88 -61 -81 -90 6 -22 50 -57 59 -47 10 9
135 -52 186 -90 26 -20 60 -55 77 -78 l30 -41 -30 -18 c-35 -21 -43 -47 -43
-151 -1 -86 21 -152 63 -194 20 -20 20 -23 6 -44 -31 -44 -12 -112 45 -160 24
-21 29 -31 24 -52 -3 -14 -12 -25 -20 -25 -7 0 -21 -15 -30 -32 -9 -18 -27
-45 -41 -59 -31 -33 -38 -83 -25 -176 14 -99 29 -127 70 -131 29 -3 32 -6 32
-37 0 -39 31 -75 65 -75 18 0 22 -10 33 -72 23 -131 90 -238 148 -238 42 0 72
78 42 108 -10 10 -7 16 10 27 45 32 53 156 13 207 -24 30 -35 98 -16 98 34 0
34 88 0 128 -19 23 -25 41 -25 76 0 86 -50 157 -100 141 -17 -5 -20 -2 -20 25
0 27 2 30 19 20 11 -5 37 -10 59 -10 49 0 82 32 82 80 l0 33 24 -22 c19 -18
33 -22 57 -19 23 4 42 -2 67 -19 44 -29 120 -53 195 -60 l58 -6 -8 -91 c-17
-193 -3 -530 33 -785 27 -192 79 -367 181 -605 60 -141 122 -314 137 -382 6
-28 4 -32 -31 -47 -66 -29 -124 -37 -280 -37 -108 0 -170 5 -215 16 -83 22
-202 14 -282 -17 -105 -41 -227 -175 -242 -266 -7 -48 8 -103 36 -128 11 -10
20 -26 20 -35 0 -24 36 -67 73 -88 26 -14 58 -17 163 -17 102 0 135 -3 149
-15 13 -11 51 -16 144 -18 145 -4 261 15 446 75 175 56 249 96 332 181 40 40
76 85 79 99 5 19 -2 42 -24 82 -38 69 -147 377 -201 566 -53 185 -113 503
-109 578 l3 58 87 -158 c48 -87 99 -185 114 -218 71 -158 280 -662 315 -758
73 -202 125 -250 394 -364 154 -66 347 -110 522 -120 126 -7 210 5 288 41 28
13 73 26 102 29 62 7 127 38 149 72 13 20 15 40 11 87 -3 37 -1 68 6 79 27 43
-50 173 -138 230 -117 77 -307 125 -450 114 -44 -4 -147 -20 -230 -37 -332
-68 -368 -45 -543 350 -96 219 -203 529 -236 688 l-13 60 63 11 c35 6 89 23
121 38 97 44 144 105 70 89 l-32 -6 22 23 c32 35 63 108 63 151 0 20 -7 72
-15 115 -25 130 -22 154 25 192 31 25 43 44 56 89 15 50 16 75 5 217 -11 166
-40 370 -65 465 -8 30 -20 91 -26 135 -19 144 -67 205 -162 205 -56 0 -60 11
-24 68 49 75 78 98 156 121 158 48 299 146 322 223 7 23 14 36 16 29 2 -6 8
-11 14 -11 6 0 8 24 6 60 -2 46 0 60 11 60 10 0 12 9 8 35 -3 19 -3 35 1 35
19 0 158 -42 184 -56 17 -9 27 -11 24 -5 -8 12 -94 44 -163 61 -43 10 -56 18
-72 46 -11 19 -25 34 -31 34 -5 0 -10 5 -10 11 0 11 104 8 195 -6 17 -2 8 2
-20 9 -27 8 -65 15 -83 15 -37 1 -105 32 -140 65 l-24 21 119 12 118 12 -123
-5 -123 -5 -14 35 c-8 19 -26 86 -39 148 -13 62 -31 130 -40 152 -15 37 -15
39 7 66 43 50 105 184 138 294 29 98 31 118 26 195 -10 142 -35 257 -93 426
-80 229 -111 336 -134 455 -25 129 -26 301 -4 423 9 48 14 90 12 92 -2 3 -18
7 -34 10 -20 4 -41 -2 -71 -20z m74 -27 c-68 -292 -47 -473 104 -913 88 -256
119 -442 100 -599 -10 -86 -57 -193 -127 -289 -29 -40 -37 -45 -52 -36 -9 6
-25 29 -35 50 l-19 39 30 34 c45 51 57 117 57 301 -1 181 -15 256 -99 507 -78
236 -89 289 -90 428 0 107 12 207 31 257 3 7 1 13 -5 13 -5 0 -13 -12 -17 -27
-3 -16 -21 -59 -40 -98 -66 -139 -80 -203 -80 -370 0 -173 13 -252 62 -379 62
-162 133 -490 101 -470 -4 3 -8 10 -8 15 0 5 -30 61 -66 125 -143 248 -190
495 -154 794 36 291 196 640 293 640 15 0 18 -5 14 -22z m-1355 -379 c9 -19
34 -72 56 -119 63 -132 220 -345 358 -484 97 -99 190 -169 339 -259 165 -99
289 -198 337 -268 32 -46 111 -209 105 -215 -1 -1 -24 3 -52 9 -37 9 -62 24
-96 57 -52 51 -149 120 -354 252 -167 108 -274 196 -362 298 -90 104 -177 238
-205 312 -18 50 -24 58 -27 38 -2 -17 27 -84 89 -205 188 -365 246 -427 537
-577 76 -39 156 -83 178 -98 38 -26 125 -113 125 -125 0 -3 -24 10 -52 29 -29
19 -126 62 -214 94 -99 37 -184 75 -220 100 -93 63 -282 256 -352 360 -137
201 -252 524 -252 707 0 131 25 169 62 94z m1203 -131 c0 -137 19 -230 76
-387 11 -30 36 -116 55 -190 46 -178 57 -365 29 -497 -10 -46 -21 -87 -25 -89
-4 -3 -11 37 -15 88 -11 144 -28 219 -94 404 -34 94 -68 209 -76 255 -20 110
-20 346 0 421 14 55 41 127 47 127 2 0 3 -60 3 -132z m-722 -771 c50 -41 139
-105 197 -142 227 -147 271 -178 324 -226 34 -31 53 -55 49 -65 -3 -8 1 -14
10 -14 9 0 29 -11 44 -25 l28 -24 -37 -1 c-27 0 -38 5 -42 18 -8 23 -91 107
-141 142 -22 15 -92 53 -155 85 -255 128 -360 220 -465 410 l-27 50 61 -67
c34 -36 103 -100 154 -141z m756 -482 c-16 -17 -29 -37 -29 -45 0 -10 8 -5 23
11 12 15 30 29 39 32 28 10 55 -36 68 -113 14 -81 34 -95 28 -20 -8 123 46 0
72 -164 11 -70 25 -137 31 -147 11 -22 10 -23 -28 -8 -27 10 -168 -2 -209 -18
-15 -6 -15 -4 -1 18 36 57 72 220 61 277 -3 17 -15 40 -25 51 -17 18 -17 20
-1 24 9 3 4 5 -13 6 -70 2 -169 -83 -214 -185 -34 -76 -55 -234 -33 -247 4 -3
7 25 8 62 1 36 8 91 17 122 33 112 134 224 197 217 50 -6 58 -115 19 -253 -11
-37 -12 -38 -20 -17 -13 34 -37 38 -65 11 -24 -22 -50 -92 -40 -107 3 -5 -44
-32 -103 -61 -95 -48 -110 -52 -131 -41 -13 7 -41 10 -66 7 -56 -6 -60 8 -14
50 21 18 50 61 66 95 25 55 28 75 29 159 0 62 -4 101 -12 111 -11 12 -7 22 21
54 l35 39 31 -17 c30 -17 33 -17 71 2 30 16 44 18 58 10 26 -14 54 -13 49 2
-2 6 -26 19 -54 28 l-49 17 42 6 c23 4 49 4 57 1 22 -9 20 6 -6 33 -27 29 -6
31 36 4 17 -11 33 -18 38 -15 4 3 8 26 8 52 l0 47 19 -30 19 -30 -29 -30z
m-355 -207 c17 -66 -4 -242 -27 -219 -6 6 -21 11 -34 11 -38 0 -70 -89 -42
-117 7 -7 6 -12 -5 -16 -22 -9 -38 18 -44 73 -3 37 0 55 15 77 11 15 41 70 68
121 26 50 51 92 55 92 4 0 10 -10 14 -22z m-165 -295 c1 -8 -11 -6 -37 5 l-39
16 31 16 c29 14 31 14 38 -5 3 -11 6 -25 7 -32z m736 23 l30 -13 -50 -7 c-87
-13 -347 -83 -425 -114 -92 -38 -79 -42 16 -6 80 30 346 99 421 109 46 6 52 5
58 -14 3 -12 17 -27 29 -34 13 -6 43 -34 66 -62 l43 -50 -29 -6 -29 -7 31 -1
c23 -1 33 -7 37 -21 3 -13 0 -20 -10 -20 -12 0 -13 -10 -8 -55 6 -44 5 -55 -6
-53 -8 2 -15 -11 -19 -34 -9 -49 -31 -80 -92 -129 -70 -55 -128 -83 -261 -125
-61 -20 -116 -40 -122 -45 -22 -21 -26 -7 -5 16 40 42 16 38 -31 -6 -157 -147
-240 -131 -285 56 -5 21 -8 25 -11 13 -6 -25 -9 -23 -60 22 -25 22 -84 59
-130 82 -98 48 -127 80 -160 177 -17 51 -23 59 -23 36 0 -23 -3 -27 -10 -15
-13 20 -13 97 0 105 6 4 59 9 118 12 l108 6 49 -79 c47 -75 79 -136 158 -304
52 -109 103 -133 194 -89 82 40 151 150 216 348 23 69 28 96 19 99 -7 2 -18 9
-25 16 -7 7 -41 18 -77 24 -53 10 -69 9 -94 -3 -16 -9 -37 -13 -47 -10 -13 4
-20 -3 -29 -30 -6 -19 -18 -39 -27 -43 -17 -10 -92 2 -125 19 -16 9 -23 9 -26
0 -6 -19 -60 -13 -72 8 -14 27 -13 31 8 32 15 1 15 2 -1 6 -11 3 -16 11 -13
19 5 14 -31 40 -42 30 -3 -3 0 -6 6 -6 7 0 12 -6 12 -14 0 -11 -32 -14 -152
-18 -98 -3 -155 -1 -160 6 -4 6 -12 5 -22 -3 -36 -30 -7 30 37 76 34 37 85 57
119 49 13 -3 17 -3 11 0 -23 10 -14 31 16 37 72 15 168 -51 195 -134 9 -27 17
-35 40 -37 17 -2 39 4 55 16 15 10 38 23 51 27 14 4 59 24 100 45 105 52 183
79 276 95 101 17 122 17 159 1z m-575 -135 c0 -24 -73 -51 -85 -31 -14 23 4
40 45 40 22 0 40 -4 40 -9z m-26 -166 c4 -24 12 -48 18 -51 7 -5 9 -2 5 9 -3
8 -9 32 -13 53 -6 33 -5 37 12 30 10 -4 38 -10 62 -13 l44 -6 -7 -91 c-4 -50
-12 -94 -18 -99 -7 -4 -32 -6 -57 -5 -44 3 -46 4 -74 60 -16 32 -31 78 -33
102 -5 37 -2 45 13 49 38 9 42 6 48 -38z m307 -194 c-39 -75 -86 -130 -129
-148 -61 -25 -83 23 -39 88 29 43 57 51 50 14 -6 -31 13 -34 22 -2 12 37 56
88 89 102 17 7 32 12 34 10 2 -2 -10 -30 -27 -64z m-21 -243 c-73 -96 -68
-128 19 -128 53 0 62 -3 84 -29 26 -31 69 -160 86 -256 62 -358 78 -677 38
-752 -24 -46 -64 -63 -144 -63 -80 0 -204 17 -216 29 -5 5 -11 54 -14 109 l-6
101 29 6 c16 3 45 14 66 24 l36 18 7 -34 c6 -35 29 -53 46 -36 16 16 -56 276
-105 378 -26 52 -51 95 -56 95 -6 0 -3 -17 6 -37 35 -82 35 -82 15 -121 -38
-75 -64 -210 -65 -332 -1 -182 22 -625 39 -740 38 -264 156 -611 318 -940 49
-99 75 -138 122 -185 93 -94 157 -104 373 -60 68 14 126 25 130 25 4 -1 -11
-10 -33 -21 -22 -12 -83 -45 -135 -74 -123 -69 -189 -88 -294 -83 -73 3 -91 8
-181 51 -55 27 -107 56 -115 65 -9 9 -29 53 -44 97 -42 116 -201 506 -247 605
-55 118 -187 353 -221 395 -17 20 -39 35 -51 35 -16 0 -18 -3 -9 -12 7 -7 12
-45 12 -99 0 -105 47 -374 96 -547 36 -129 116 -356 179 -505 20 -48 35 -98
33 -110 -7 -47 -290 -166 -418 -174 l-76 -6 -63 97 c-60 91 -106 141 -161 177
-23 15 -16 16 120 22 147 6 227 22 260 52 17 15 19 15 25 -14 4 -17 11 -31 16
-31 13 0 11 12 -11 112 -24 110 -69 241 -135 393 -119 273 -195 575 -195 775
l0 85 20 -40 c27 -55 76 -112 111 -131 45 -23 147 -29 189 -11 77 34 128 103
187 252 l28 70 -3 237 c-4 291 19 654 49 778 30 122 68 238 94 290 28 55 111
173 153 218 48 51 56 37 12 -20z m-98 -55 c-33 -43 -71 -99 -86 -124 -27 -48
-75 -180 -101 -280 -42 -161 -70 -539 -60 -809 l7 -185 -31 -95 c-52 -162
-129 -248 -230 -258 -92 -8 -161 52 -233 203 l-33 70 1 155 c1 206 16 316 68
534 80 328 152 471 302 596 118 99 174 151 191 180 15 26 16 26 58 13 56 -19
114 -4 163 42 20 19 38 35 40 35 1 0 -24 -35 -56 -77z m-1678 -5 c28 -8 61
-32 101 -73 98 -99 177 -195 172 -209 -3 -7 -27 -16 -53 -20 l-48 -6 -59 61
c-61 63 -181 131 -254 145 -44 8 -60 37 -39 69 27 41 105 55 180 33z m442 -88
c10 -9 14 -9 14 -1 0 18 47 13 52 -6 3 -10 1 -95 -3 -190 -6 -129 -12 -179
-24 -204 -17 -32 -17 -57 1 -151 6 -35 5 -38 -16 -38 -22 0 -22 -1 -14 -72 4
-40 8 -98 9 -128 l0 -55 -39 -6 c-54 -9 -76 -1 -76 26 0 16 6 22 17 21 26 -2
27 33 4 71 -24 38 -77 53 -125 35 -43 -17 -46 -5 -3 13 21 9 48 12 67 9 28 -6
72 -46 83 -76 2 -7 8 -10 12 -5 5 4 1 22 -7 41 -17 34 -68 66 -107 66 -27 0
-86 -24 -95 -39 -10 -16 15 -39 36 -33 22 5 22 2 1 -43 -20 -41 -30 -41 -60 5
-43 63 -24 125 51 165 39 21 49 41 16 32 -15 -4 -20 0 -20 14 0 19 1 19 33 3
107 -56 200 -17 152 64 -10 15 -41 48 -71 73 l-54 44 63 6 c72 6 98 18 116 53
11 20 11 28 2 40 -19 22 -93 56 -124 56 -34 0 -34 7 -1 32 16 13 22 23 15 28
-17 10 3 100 27 119 11 9 26 34 33 56 13 37 14 38 17 13 2 -14 10 -32 18 -38z
m954 26 c0 -3 -28 -26 -62 -52 -35 -26 -89 -72 -120 -103 -32 -30 -58 -53 -58
-49 0 3 7 24 15 47 20 59 72 127 109 145 28 14 116 23 116 12z m-637 -104 c24
-21 22 -26 -22 -70 -21 -21 -49 -58 -61 -82 -21 -42 -22 -52 -16 -175 7 -124
6 -132 -14 -150 -28 -25 -25 -39 5 -19 23 15 24 15 31 -11 15 -62 -61 -185
-115 -185 -27 0 -26 4 5 46 34 44 23 43 -29 -1 -22 -19 -44 -32 -48 -28 -3 5
-9 36 -12 70 -5 48 -3 62 8 67 12 4 14 24 12 93 -1 70 2 95 17 123 16 29 18
49 13 140 l-5 105 42 41 c65 62 143 77 189 36z m-372 -178 c18 -11 34 -24 36
-31 9 -25 -41 -42 -122 -42 -141 0 -225 3 -225 9 0 17 55 55 102 72 65 23 162
19 209 -8z m-150 -116 c68 -48 149 -130 149 -150 0 -10 -7 -21 -15 -24 -25
-10 -112 16 -157 46 -45 31 -61 32 -36 3 8 -10 15 -35 15 -55 1 -29 -3 -39
-20 -44 -14 -4 -25 0 -35 12 -28 37 -54 106 -59 161 -5 47 -3 58 12 69 34 25
97 17 146 -18z m1488 -260 c12 -51 23 -101 25 -111 5 -20 -58 -57 -97 -57
l-25 0 14 70 c18 97 45 190 54 190 5 0 18 -42 29 -92z m-876 14 c59 -2 107 -7
107 -11 0 -3 -13 -58 -28 -121 l-28 -115 -44 3 c-59 4 -169 37 -199 60 l-24
19 37 54 c26 39 36 65 36 92 0 34 3 38 18 31 9 -4 65 -9 125 -12z m-567 -117
c-3 -8 -8 -38 -11 -67 -4 -29 -15 -74 -26 -100 -10 -26 -19 -56 -19 -67 0 -12
-3 -21 -8 -21 -4 0 -5 33 -1 73 7 77 44 197 61 197 6 0 8 -7 4 -15z m46 -21
c-19 -146 -21 -188 -12 -230 13 -55 7 -69 -9 -23 -12 35 -15 180 -5 242 7 37
31 48 26 11z m-56 -191 c0 -29 7 -59 17 -74 17 -25 17 -27 1 -33 -19 -7 -17
-9 -33 22 -13 24 -6 132 8 132 4 0 7 -21 7 -47z m-86 21 c0 -8 -5 -12 -10 -9
-6 4 -8 11 -5 16 9 14 15 11 15 -7z m216 -46 c11 -21 15 -50 12 -96 -3 -60 -1
-65 21 -73 15 -6 21 -14 17 -25 -3 -8 -2 -12 4 -9 6 4 10 -9 10 -30 0 -33 -2
-36 -21 -30 -20 7 -21 5 -14 -16 4 -13 8 -40 8 -59 0 -20 8 -41 18 -50 24 -21
38 -80 30 -127 -12 -63 -19 -68 -51 -38 -38 37 -46 17 -15 -42 27 -50 30 -98
6 -98 -24 0 -79 82 -100 148 l-19 62 24 3 c30 4 54 38 54 74 0 39 -13 35 -34
-9 -17 -36 -19 -37 -32 -18 -8 10 -14 24 -14 31 0 8 -16 14 -37 16 -37 3 -38
4 -48 55 -12 60 -19 70 -40 53 -39 -32 -65 36 -65 168 0 69 3 81 23 99 36 33
47 36 47 15 0 -11 -9 -22 -20 -25 -11 -3 -20 -10 -20 -16 0 -7 9 -9 23 -6 35
9 57 -15 65 -70 6 -41 11 -50 27 -50 15 0 20 7 20 30 1 29 3 30 47 30 52 0 66
8 50 27 -5 7 -16 32 -23 56 -11 36 -10 45 1 52 18 11 27 5 46 -32z m1378 -128
c48 -7 96 -10 108 -7 17 5 19 2 14 -16 -3 -12 -13 -59 -21 -104 -8 -45 -21
-99 -30 -119 -33 -79 -162 -201 -187 -176 -6 6 -13 70 -16 155 l-5 144 52 54
c28 29 51 54 51 56 0 7 -79 -37 -85 -47 -13 -21 -21 -8 -24 36 -2 46 -2 47 27
41 15 -3 68 -11 116 -17z m160 -170 c19 -114 13 -154 -30 -226 -34 -56 -37
-78 -9 -67 35 13 11 -9 -35 -32 -59 -30 -163 -56 -180 -45 -7 4 -16 26 -20 49
-6 35 -5 41 9 41 31 0 107 57 154 114 49 60 72 118 82 209 4 32 8 57 10 55 3
-2 11 -46 19 -98z m974 -1515 c83 -20 198 -73 244 -114 35 -31 93 -129 83
-140 -3 -2 -22 11 -43 30 -77 72 -144 112 -220 129 -17 5 -34 4 -37 0 -2 -4
13 -10 34 -14 83 -13 249 -156 270 -232 15 -53 14 -64 -9 -101 -19 -33 -64
-51 -162 -68 -34 -5 -38 -4 -38 16 0 33 -37 86 -83 118 -58 39 -163 91 -184
91 -10 0 2 -10 27 -21 119 -53 215 -141 208 -191 -4 -32 -73 -65 -153 -73 -79
-9 -265 14 -443 54 -106 24 -157 42 -264 94 -161 79 -223 133 -274 244 -19 39
-34 75 -34 78 0 4 33 -12 73 -33 101 -56 174 -76 261 -69 92 6 147 26 257 92
133 81 167 96 244 110 95 18 168 18 243 0z m-2236 -56 c120 -25 216 -103 316
-255 l53 -81 82 -2 c47 -1 107 5 140 14 76 20 220 79 278 115 l47 29 4 -24 c4
-18 -7 -36 -51 -78 -72 -71 -155 -116 -308 -167 -177 -59 -281 -80 -423 -86
-130 -5 -160 1 -184 38 -23 37 60 154 156 218 40 27 54 40 40 40 -32 0 -138
-77 -182 -132 -22 -28 -45 -67 -51 -88 -10 -33 -16 -39 -48 -44 -102 -17 -210
2 -241 42 -58 74 -2 168 197 327 64 51 85 79 36 48 -123 -77 -262 -204 -277
-251 -14 -44 -36 -13 -36 54 0 74 120 224 210 262 71 29 162 38 242 21z"/>
<path d="M3256 4734 c15 -60 23 -72 23 -33 1 22 -5 42 -15 50 -13 11 -14 9 -8
-17z"/>
<path d="M2885 4320 c27 -12 43 -12 25 0 -8 5 -22 9 -30 9 -10 0 -8 -3 5 -9z"/>
<path d="M2980 4280 c30 -16 60 -29 65 -29 6 0 -15 13 -45 29 -30 16 -59 29
-65 29 -5 0 15 -13 45 -29z"/>
<path d="M2778 4293 c7 -3 16 -2 19 1 4 3 -2 6 -13 5 -11 0 -14 -3 -6 -6z"/>
<path d="M2838 4283 c7 -3 16 -2 19 1 4 3 -2 6 -13 5 -11 0 -14 -3 -6 -6z"/>
<path d="M3710 4280 c-132 -14 -261 -33 -256 -37 2 -3 62 3 133 11 71 9 149
16 173 16 25 0 52 5 60 10 18 11 4 11 -110 0z"/>
<path d="M3618 4203 c34 -2 88 -2 120 0 31 2 3 3 -63 3 -66 0 -92 -1 -57 -3z"/>
<path d="M3818 4193 c12 -2 30 -2 40 0 9 3 -1 5 -23 4 -22 0 -30 -2 -17 -4z"/>
<path d="M2956 3333 c-57 -77 -99 -213 -66 -213 6 0 10 9 10 20 0 33 38 131
70 184 41 64 31 71 -14 9z"/>
<path d="M2047 3444 c-14 -14 -6 -20 28 -20 20 0 34 5 32 11 -4 12 -50 19 -60
9z"/>
<path d="M2558 4363 c12 -2 32 -2 45 0 12 2 2 4 -23 4 -25 0 -35 -2 -22 -4z"/>
<path d="M2653 4363 c15 -2 37 -2 50 0 12 2 0 4 -28 4 -27 0 -38 -2 -22 -4z"/>
<path d="M2658 4303 c6 -2 18 -2 25 0 6 3 1 5 -13 5 -14 0 -19 -2 -12 -5z"/>
</g>
</svg>
